<svg xmlns="http://www.w3.org/2000/svg" viewBox="0 0 513.92 571.99"><defs><style>.cls-1{fill:#2339a6;}</style></defs><title>Asset 3</title><g id="Layer_2" data-name="Layer 2"><g id="Layer_1-2" data-name="Layer 1"><path class="cls-1" d="M479.27,117.63,291.61,9.28a69.3,69.3,0,0,0-69.3,0L34.65,117.63A69.3,69.3,0,0,0,0,177.65v216.7a69.3,69.3,0,0,0,34.65,60L222.31,562.7a69.3,69.3,0,0,0,69.3,0L479.27,454.35a69.3,69.3,0,0,0,34.65-60V177.64A69.3,69.3,0,0,0,479.27,117.63ZM364.58,185a14.8,14.8,0,0,1-14.76,14.76H257.68a14.8,14.8,0,0,0-14.76,14.76v30a14.8,14.8,0,0,0,14.76,14.76h43.68a14.8,14.8,0,0,1,14.76,14.76v32.39a14.8,14.8,0,0,1-14.76,14.76H257.68A14.8,14.8,0,0,0,242.92,336v83.82a14.8,14.8,0,0,1-14.76,14.76h-39a14.8,14.8,0,0,1-14.76-14.76V152.2a14.8,14.8,0,0,1,14.76-14.76H349.83a14.8,14.8,0,0,1,14.76,14.76Z"/></g></g></svg>